<svg width="329" height="116" viewBox="0 0 329 116" fill="none" xmlns="http://www.w3.org/2000/svg">
<path d="M92.4694 67.2699C95.303 63.651 97.2267 59.5188 98.2659 55.2384C99.2218 51.3078 99.4359 47.2669 98.9378 43.3287C98.4785 39.6984 97.417 36.1326 95.7624 32.7761C94.2118 29.6399 92.2568 26.9143 90.0595 24.6183C87.9515 22.4172 85.5669 20.5622 83.0381 19.0987C80.5494 17.6616 77.8615 16.563 75.0711 15.8712C72.2598 15.1756 69.2776 14.8715 66.1987 15.0502L34.8119 16.8633L31.3253 38.1132L60.0067 33.7644L63.1823 19.4065L70.9486 32.1032L86.2775 29.7805L76.8417 41.7397L88.9089 61.4728L69.0308 51.6386L50.9818 74.5192L55.9109 52.2506L27.8948 59.0056L21 101L80.3205 76.511C85.3216 74.4469 89.4024 71.1929 92.4694 67.2699Z" fill="#FFAC19"/>
<path d="M123.68 53.7778H112.962V25.9798H123.571C126.436 25.9798 128.912 26.5363 130.997 27.6493C133.092 28.7533 134.706 30.3459 135.839 32.4271C136.982 34.4993 137.553 36.9832 137.553 39.8788C137.553 42.7744 136.986 45.2628 135.853 47.3441C134.72 49.4162 133.115 51.0088 131.038 52.1218C128.962 53.2258 126.509 53.7778 123.68 53.7778ZM120.524 47.3712H123.408C124.786 47.3712 125.96 47.1495 126.931 46.7061C127.91 46.2627 128.653 45.4981 129.161 44.4123C129.678 43.3264 129.937 41.8152 129.937 39.8788C129.937 37.9423 129.674 36.4312 129.148 35.3453C128.631 34.2595 127.869 33.4948 126.863 33.0515C125.865 32.6081 124.641 32.3864 123.19 32.3864H120.524V47.3712Z" fill="#FFAC19"/>
<path d="M141.052 53.7778V25.9798H161.127V32.0606H148.614V36.8384H160.094V42.9192H148.614V47.697H161.073V53.7778H141.052Z" fill="#FFAC19"/>
<path d="M164.116 32.0606V25.9798H188.326V32.0606H179.948V53.7778H172.495V32.0606H164.116Z" fill="#FFAC19"/>
<path d="M198.735 25.9798V53.7778H191.173V25.9798H198.735Z" fill="#FFAC19"/>
<path d="M202.319 53.7778V25.9798H209.881V36.8384H219.891V25.9798H227.454V53.7778H219.891V42.9192H209.881V53.7778H202.319Z" fill="#FFAC19"/>
<path d="M258.029 39.8788C258.029 42.9735 257.426 45.5841 256.22 47.7105C255.014 49.828 253.387 51.4341 251.337 52.529C249.288 53.6149 247.003 54.1578 244.482 54.1578C241.944 54.1578 239.649 53.6104 237.6 52.5155C235.56 51.4115 233.937 49.8008 232.731 47.6834C231.534 45.5569 230.936 42.9554 230.936 39.8788C230.936 36.7841 231.534 34.178 232.731 32.0606C233.937 29.9341 235.56 28.328 237.6 27.2421C239.649 26.1472 241.944 25.5997 244.482 25.5997C247.003 25.5997 249.288 26.1472 251.337 27.2421C253.387 28.328 255.014 29.9341 256.22 32.0606C257.426 34.178 258.029 36.7841 258.029 39.8788ZM250.249 39.8788C250.249 38.2138 250.027 36.8112 249.583 35.6711C249.148 34.5219 248.499 33.6532 247.638 33.065C246.786 32.4678 245.734 32.1692 244.482 32.1692C243.231 32.1692 242.175 32.4678 241.313 33.065C240.461 33.6532 239.813 34.5219 239.368 35.6711C238.933 36.8112 238.716 38.2138 238.716 39.8788C238.716 41.5438 238.933 42.9509 239.368 44.1001C239.813 45.2402 240.461 46.1089 241.313 46.7061C242.175 47.2943 243.231 47.5884 244.482 47.5884C245.734 47.5884 246.786 47.2943 247.638 46.7061C248.499 46.1089 249.148 45.2402 249.583 44.1001C250.027 42.9509 250.249 41.5438 250.249 39.8788Z" fill="#FFAC19"/>
<path d="M261.528 53.7778V25.9798H269.09V47.697H280.352V53.7778H261.528Z" fill="#FFAC19"/>
<path d="M294.127 53.7778H283.409V25.9798H294.018C296.883 25.9798 299.359 26.5363 301.444 27.6493C303.539 28.7533 305.153 30.3459 306.286 32.4271C307.429 34.4993 308 36.9832 308 39.8788C308 42.7744 307.433 45.2628 306.3 47.3441C305.166 49.4162 303.561 51.0088 301.485 52.1218C299.409 53.2258 296.956 53.7778 294.127 53.7778ZM290.971 47.3712H293.855C295.233 47.3712 296.407 47.1495 297.377 46.7061C298.357 46.2627 299.1 45.4981 299.608 44.4123C300.125 43.3264 300.383 41.8152 300.383 39.8788C300.383 37.9423 300.12 36.4312 299.594 35.3453C299.078 34.2595 298.316 33.4948 297.309 33.0515C296.312 32.6081 295.088 32.3864 293.637 32.3864H290.971V47.3712Z" fill="#FFAC19"/>
<path d="M130.374 76.9998H128.261C128.136 76.3919 127.917 75.8578 127.604 75.3976C127.298 74.9373 126.923 74.551 126.479 74.2385C126.042 73.9203 125.556 73.6816 125.022 73.5226C124.488 73.3635 123.931 73.2839 123.352 73.2839C122.295 73.2839 121.337 73.551 120.479 74.0851C119.627 74.6191 118.948 75.4061 118.442 76.4458C117.942 77.4856 117.692 78.7612 117.692 80.2726C117.692 81.7839 117.942 83.0595 118.442 84.0993C118.948 85.139 119.627 85.926 120.479 86.4601C121.337 86.9941 122.295 87.2612 123.352 87.2612C123.931 87.2612 124.488 87.1816 125.022 87.0226C125.556 86.8635 126.042 86.6277 126.479 86.3152C126.923 85.997 127.298 85.6078 127.604 85.1476C127.917 84.6816 128.136 84.1476 128.261 83.5453H130.374C130.215 84.4373 129.925 85.2356 129.505 85.9402C129.084 86.6447 128.562 87.2441 127.937 87.7385C127.312 88.2271 126.61 88.5993 125.832 88.8549C125.059 89.1106 124.232 89.2385 123.352 89.2385C121.863 89.2385 120.539 88.8748 119.38 88.1476C118.221 87.4203 117.309 86.3862 116.644 85.0453C115.979 83.7044 115.647 82.1135 115.647 80.2726C115.647 78.4316 115.979 76.8407 116.644 75.4998C117.309 74.1589 118.221 73.1248 119.38 72.3976C120.539 71.6703 121.863 71.3066 123.352 71.3066C124.232 71.3066 125.059 71.4345 125.832 71.6902C126.61 71.9458 127.312 72.3208 127.937 72.8152C128.562 73.3038 129.084 73.9004 129.505 74.6049C129.925 75.3038 130.215 76.1021 130.374 76.9998Z" fill="#FFAC19"/>
<path d="M133.277 88.9998V75.9089H135.22V77.8862H135.357C135.595 77.2385 136.027 76.7129 136.652 76.3095C137.277 75.9061 137.982 75.7044 138.766 75.7044C138.913 75.7044 139.098 75.7072 139.32 75.7129C139.541 75.7186 139.709 75.7271 139.822 75.7385V77.7839C139.754 77.7669 139.598 77.7413 139.354 77.7072C139.115 77.6674 138.862 77.6476 138.595 77.6476C137.959 77.6476 137.391 77.7811 136.891 78.0481C136.396 78.3095 136.004 78.6731 135.715 79.139C135.43 79.5993 135.288 80.1248 135.288 80.7157V88.9998H133.277Z" fill="#FFAC19"/>
<path d="M143.661 93.9089C143.32 93.9089 143.016 93.8805 142.749 93.8237C142.482 93.7726 142.297 93.7214 142.195 93.6703L142.706 91.8976C143.195 92.0226 143.626 92.068 144.001 92.0339C144.376 91.9998 144.709 91.8322 144.999 91.5311C145.294 91.2356 145.564 90.7555 145.808 90.0907L146.183 89.068L141.342 75.9089H143.524L147.138 86.3407H147.274L150.888 75.9089H153.07L147.513 90.9089C147.263 91.5851 146.953 92.1447 146.584 92.5879C146.215 93.0368 145.786 93.3691 145.297 93.5851C144.814 93.801 144.269 93.9089 143.661 93.9089Z" fill="#FFAC19"/>
<path d="M155.485 93.9089V75.9089H157.428V77.9885H157.666C157.814 77.7612 158.019 77.4714 158.28 77.1191C158.547 76.7612 158.928 76.443 159.422 76.1646C159.922 75.8805 160.598 75.7385 161.45 75.7385C162.553 75.7385 163.524 76.014 164.365 76.5652C165.206 77.1163 165.862 77.8976 166.334 78.9089C166.806 79.9203 167.041 81.1135 167.041 82.4885C167.041 83.8748 166.806 85.0765 166.334 86.0936C165.862 87.1049 165.209 87.889 164.374 88.4458C163.538 88.997 162.575 89.2726 161.485 89.2726C160.644 89.2726 159.97 89.1333 159.465 88.8549C158.959 88.5708 158.57 88.2498 158.297 87.8919C158.024 87.5282 157.814 87.2271 157.666 86.9885H157.496V93.9089H155.485ZM157.462 82.4544C157.462 83.443 157.607 84.3152 157.896 85.0708C158.186 85.8208 158.609 86.4089 159.166 86.8351C159.723 87.2555 160.405 87.4657 161.212 87.4657C162.053 87.4657 162.754 87.2441 163.317 86.801C163.885 86.3521 164.311 85.7498 164.595 84.9941C164.885 84.2328 165.03 83.3862 165.03 82.4544C165.03 81.5339 164.888 80.7044 164.604 79.9657C164.325 79.2214 163.902 78.6333 163.334 78.2015C162.771 77.764 162.064 77.5453 161.212 77.5453C160.394 77.5453 159.706 77.7527 159.149 78.1674C158.592 78.5765 158.172 79.1504 157.888 79.889C157.604 80.622 157.462 81.4771 157.462 82.4544Z" fill="#FFAC19"/>
<path d="M175.563 75.9089V77.6135H168.779V75.9089H175.563ZM170.756 72.7726H172.767V85.2498C172.767 85.818 172.85 86.2441 173.014 86.5282C173.185 86.8066 173.401 86.9941 173.662 87.0907C173.929 87.1816 174.21 87.2271 174.506 87.2271C174.727 87.2271 174.909 87.2157 175.051 87.193C175.193 87.1646 175.307 87.1419 175.392 87.1248L175.801 88.9316C175.665 88.9828 175.475 89.0339 175.23 89.0851C174.986 89.1419 174.676 89.1703 174.301 89.1703C173.733 89.1703 173.176 89.0481 172.631 88.8038C172.091 88.5595 171.642 88.1873 171.284 87.6873C170.932 87.1873 170.756 86.5566 170.756 85.7953V72.7726Z" fill="#FFAC19"/>
<path d="M183.526 89.2726C182.344 89.2726 181.307 88.9913 180.415 88.4288C179.529 87.8663 178.835 87.0794 178.335 86.068C177.841 85.0566 177.594 83.8748 177.594 82.5226C177.594 81.1589 177.841 79.9686 178.335 78.9515C178.835 77.9345 179.529 77.1447 180.415 76.5822C181.307 76.0197 182.344 75.7385 183.526 75.7385C184.708 75.7385 185.742 76.0197 186.628 76.5822C187.52 77.1447 188.213 77.9345 188.708 78.9515C189.208 79.9686 189.458 81.1589 189.458 82.5226C189.458 83.8748 189.208 85.0566 188.708 86.068C188.213 87.0794 187.52 87.8663 186.628 88.4288C185.742 88.9913 184.708 89.2726 183.526 89.2726ZM183.526 87.4657C184.424 87.4657 185.162 87.2356 185.742 86.7754C186.321 86.3152 186.75 85.7101 187.029 84.9601C187.307 84.2101 187.446 83.3976 187.446 82.5226C187.446 81.6476 187.307 80.8322 187.029 80.0765C186.75 79.3208 186.321 78.7101 185.742 78.2441C185.162 77.7782 184.424 77.5453 183.526 77.5453C182.628 77.5453 181.889 77.7782 181.31 78.2441C180.73 78.7101 180.301 79.3208 180.023 80.0765C179.745 80.8322 179.605 81.6476 179.605 82.5226C179.605 83.3976 179.745 84.2101 180.023 84.9601C180.301 85.7101 180.73 86.3152 181.31 86.7754C181.889 87.2356 182.628 87.4657 183.526 87.4657Z" fill="#FFAC19"/>
<path d="M199.071 88.9998V71.5453H209.605V73.4203H201.184V79.318H209.059V81.193H201.184V87.1248H209.741V88.9998H199.071Z" fill="#FFAC19"/>
<path d="M214.402 75.9089L217.538 81.2612L220.674 75.9089H222.993L218.765 82.4544L222.993 88.9998H220.674L217.538 83.9203L214.402 88.9998H212.084L216.243 82.4544L212.084 75.9089H214.402Z" fill="#FFAC19"/>
<path d="M230.402 89.2726C229.174 89.2726 228.118 88.9828 227.231 88.4032C226.345 87.8237 225.663 87.0254 225.186 86.0083C224.709 84.9913 224.47 83.8294 224.47 82.5226C224.47 81.193 224.714 80.0197 225.203 79.0027C225.697 77.9799 226.385 77.1816 227.265 76.6078C228.152 76.0282 229.186 75.7385 230.368 75.7385C231.288 75.7385 232.118 75.9089 232.856 76.2498C233.595 76.5907 234.2 77.068 234.672 77.6816C235.143 78.2953 235.436 79.0112 235.549 79.8294H233.538C233.385 79.2328 233.044 78.7044 232.515 78.2441C231.993 77.7782 231.288 77.5453 230.402 77.5453C229.618 77.5453 228.93 77.7498 228.339 78.1589C227.754 78.5623 227.297 79.1333 226.967 79.872C226.643 80.6049 226.481 81.4657 226.481 82.4544C226.481 83.4657 226.64 84.3464 226.959 85.0964C227.282 85.8464 227.737 86.4288 228.322 86.8436C228.913 87.2583 229.606 87.4657 230.402 87.4657C230.924 87.4657 231.399 87.3748 231.825 87.193C232.251 87.0112 232.612 86.7498 232.907 86.4089C233.203 86.068 233.413 85.6589 233.538 85.1816H235.549C235.436 85.9544 235.155 86.6504 234.706 87.2697C234.263 87.8833 233.674 88.372 232.942 88.7356C232.214 89.0936 231.368 89.2726 230.402 89.2726Z" fill="#FFAC19"/>
<path d="M240.261 81.1248V88.9998H238.25V71.5453H240.261V77.9544H240.432C240.738 77.2782 241.199 76.7413 241.812 76.3436C242.432 75.9402 243.255 75.7385 244.284 75.7385C245.176 75.7385 245.957 75.9174 246.628 76.2754C247.298 76.6277 247.818 77.1703 248.187 77.9032C248.562 78.6305 248.75 79.5566 248.75 80.6816V88.9998H246.738V80.818C246.738 79.7782 246.469 78.9743 245.929 78.4061C245.395 77.8322 244.653 77.5453 243.704 77.5453C243.045 77.5453 242.454 77.6845 241.932 77.9629C241.415 78.2413 241.006 78.6476 240.704 79.1816C240.409 79.7157 240.261 80.3635 240.261 81.1248Z" fill="#FFAC19"/>
<path d="M256.042 89.3066C255.212 89.3066 254.459 89.1504 253.783 88.8379C253.107 88.5197 252.57 88.0623 252.172 87.4657C251.775 86.8635 251.576 86.1362 251.576 85.2839C251.576 84.5339 251.724 83.926 252.019 83.4601C252.315 82.9885 252.709 82.6191 253.204 82.3521C253.698 82.0851 254.243 81.8862 254.84 81.7555C255.442 81.6191 256.047 81.5112 256.655 81.4316C257.451 81.3294 258.096 81.2527 258.59 81.2015C259.09 81.1447 259.454 81.051 259.681 80.9203C259.914 80.7896 260.03 80.5623 260.03 80.2385V80.1703C260.03 79.3294 259.8 78.676 259.34 78.2101C258.886 77.7441 258.195 77.5112 257.269 77.5112C256.309 77.5112 255.556 77.7214 255.011 78.1419C254.465 78.5623 254.082 79.0112 253.86 79.4885L251.951 78.8066C252.292 78.0112 252.746 77.3919 253.315 76.9487C253.888 76.4998 254.513 76.1873 255.19 76.0112C255.871 75.8294 256.542 75.7385 257.201 75.7385C257.621 75.7385 258.104 75.7896 258.65 75.8919C259.201 75.9885 259.732 76.1902 260.243 76.497C260.761 76.8038 261.19 77.2669 261.53 77.8862C261.871 78.5055 262.042 79.335 262.042 80.3748V88.9998H260.03V87.2271H259.928C259.792 87.5112 259.564 87.8152 259.246 88.139C258.928 88.4629 258.505 88.7385 257.976 88.9657C257.448 89.193 256.803 89.3066 256.042 89.3066ZM256.349 87.4998C257.144 87.4998 257.815 87.3436 258.36 87.0311C258.911 86.7186 259.326 86.3152 259.604 85.8208C259.888 85.3265 260.03 84.8066 260.03 84.2612V82.4203C259.945 82.5225 259.758 82.6163 259.468 82.7015C259.184 82.7811 258.854 82.8521 258.479 82.9146C258.11 82.9714 257.749 83.0226 257.397 83.068C257.05 83.1078 256.769 83.1419 256.553 83.1703C256.03 83.2385 255.542 83.3493 255.087 83.5027C254.638 83.6504 254.275 83.8748 253.996 84.176C253.724 84.4714 253.587 84.8748 253.587 85.3862C253.587 86.0851 253.846 86.6135 254.363 86.9714C254.886 87.3237 255.547 87.4998 256.349 87.4998Z" fill="#FFAC19"/>
<path d="M267.484 81.1248V88.9998H265.473V75.9089H267.416V77.9544H267.587C267.893 77.2896 268.359 76.7555 268.984 76.3521C269.609 75.943 270.416 75.7385 271.405 75.7385C272.291 75.7385 273.067 75.9203 273.731 76.2839C274.396 76.6419 274.913 77.1873 275.283 77.9203C275.652 78.6476 275.837 79.568 275.837 80.6816V88.9998H273.825V80.818C273.825 79.7896 273.558 78.9885 273.024 78.4146C272.49 77.8351 271.757 77.5453 270.825 77.5453C270.183 77.5453 269.609 77.6845 269.104 77.9629C268.604 78.2413 268.209 78.6476 267.919 79.1816C267.629 79.7157 267.484 80.3635 267.484 81.1248Z" fill="#FFAC19"/>
<path d="M284.556 94.1816C283.585 94.1816 282.749 94.0566 282.05 93.8066C281.352 93.5623 280.769 93.2385 280.303 92.8351C279.843 92.4373 279.477 92.0112 279.204 91.5566L280.806 90.4316C280.988 90.6703 281.218 90.943 281.496 91.2498C281.775 91.5623 282.156 91.8322 282.638 92.0595C283.127 92.2924 283.766 92.4089 284.556 92.4089C285.613 92.4089 286.485 92.1532 287.173 91.6419C287.86 91.1305 288.204 90.3294 288.204 89.2385V86.5794H288.033C287.886 86.818 287.675 87.1135 287.403 87.4657C287.136 87.8123 286.749 88.122 286.244 88.3947C285.744 88.6618 285.067 88.7953 284.215 88.7953C283.158 88.7953 282.21 88.5453 281.369 88.0453C280.533 87.5453 279.871 86.818 279.383 85.8635C278.9 84.9089 278.658 83.7498 278.658 82.3862C278.658 81.0453 278.894 79.8777 279.366 78.8833C279.837 77.8833 280.494 77.1106 281.335 76.5652C282.175 76.014 283.147 75.7385 284.249 75.7385C285.102 75.7385 285.778 75.8805 286.278 76.1646C286.783 76.443 287.17 76.7612 287.437 77.1191C287.709 77.4714 287.92 77.7612 288.067 77.9885H288.272V75.9089H290.215V89.3748C290.215 90.4998 289.96 91.4146 289.448 92.1191C288.942 92.8294 288.261 93.3493 287.403 93.6788C286.55 94.014 285.602 94.1816 284.556 94.1816ZM284.488 86.9885C285.295 86.9885 285.977 86.8038 286.533 86.4345C287.09 86.0652 287.513 85.5339 287.803 84.8407C288.093 84.1476 288.238 83.318 288.238 82.3521C288.238 81.4089 288.096 80.5765 287.812 79.8549C287.528 79.1333 287.107 78.568 286.55 78.1589C285.994 77.7498 285.306 77.5453 284.488 77.5453C283.636 77.5453 282.925 77.7612 282.357 78.193C281.795 78.6248 281.371 79.2044 281.087 79.9316C280.809 80.6589 280.67 81.4657 280.67 82.3521C280.67 83.2612 280.812 84.0652 281.096 84.764C281.386 85.4572 281.812 86.0027 282.374 86.4004C282.942 86.7924 283.647 86.9885 284.488 86.9885Z" fill="#FFAC19"/>
<path d="M299.146 89.2726C297.884 89.2726 296.796 88.9941 295.881 88.4373C294.972 87.8748 294.271 87.0907 293.776 86.0851C293.288 85.0737 293.043 83.8976 293.043 82.5566C293.043 81.2157 293.288 80.0339 293.776 79.0112C294.271 77.9828 294.958 77.1816 295.839 76.6078C296.725 76.0282 297.759 75.7385 298.941 75.7385C299.623 75.7385 300.296 75.8521 300.961 76.0794C301.626 76.3066 302.231 76.676 302.776 77.1873C303.322 77.693 303.756 78.3635 304.08 79.1987C304.404 80.0339 304.566 81.0623 304.566 82.2839V83.1362H294.475V81.3976H302.521C302.521 80.6589 302.373 79.9998 302.077 79.4203C301.788 78.8407 301.373 78.3833 300.833 78.0481C300.299 77.7129 299.668 77.5453 298.941 77.5453C298.14 77.5453 297.447 77.7441 296.862 78.1419C296.282 78.5339 295.836 79.0453 295.523 79.676C295.211 80.3066 295.055 80.9828 295.055 81.7044V82.8635C295.055 83.8521 295.225 84.6902 295.566 85.3777C295.913 86.0595 296.393 86.5794 297.006 86.9373C297.62 87.2896 298.333 87.4657 299.146 87.4657C299.674 87.4657 300.151 87.3919 300.577 87.2441C301.009 87.0907 301.381 86.8635 301.694 86.5623C302.006 86.2555 302.248 85.8748 302.418 85.4203L304.362 85.9657C304.157 86.6248 303.813 87.2044 303.33 87.7044C302.847 88.1987 302.251 88.585 301.541 88.8635C300.83 89.1362 300.032 89.2726 299.146 89.2726Z" fill="#FFAC19"/>
</svg>
